<svg id="b0cc8476-bec5-4b2d-aec0-a8798abf8d72" data-name="Layer 1" xmlns="http://www.w3.org/2000/svg" width="799" height="799" viewBox="0 0 799 799">
  <title>icon-cjd</title>
  <circle cx="399.5" cy="399.5" r="399.5" style="fill: #2870b7"/>
  <g>
    <path d="M186.2959,456.0977c0-22.3448-22.3457-31.78-34.2632-33.7666a8.72,8.72,0,0,1-7.4487-8.9375V389.0615c0-4.9658,3.4761-7.4487,6.9521-8.4419,4.4693-.9931,34.76-12.9106,34.76-34.2627V288.2583c0-109.2446,72.002-124.6382,123.1484-126.6245,5.4624-.4966,9.4346,2.4829,9.9312,8.4419l1.9863,31.2837a8.0235,8.0235,0,0,1-6.9516,8.938c-38.7325,8.4419-66.54,27.311-66.54,77.9609v47.1738c0,42.7051-36.7461,62.5679-41.2148,64.5542v1.9864c13.4072,5.4619,41.2148,21.8486,41.2148,62.07V512.21c0,50.6494,27.8076,68.0293,66.54,75.9746,3.4755.9931,7.4482,3.9726,6.9516,9.4345l-1.9863,31.2842a9.3474,9.3474,0,0,1-9.9312,8.4414c-51.1464-1.9863-123.1484-15.89-123.1484-125.1347Z" style="fill: #fff"/>
    <path d="M396.3438,443.1875c24.332,0,44.6914,20.3594,44.6914,59.0908,0,42.7051-17.877,73.9893-35.753,97.8242-3.4765,2.98-6.9521,3.4756-10.4277.4961L380.95,590.668c-3.4756-3.4766-2.4824-7.4492.4961-11.4219,13.4082-17.3789,24.8291-39.7246,24.8291-60.5811a50.0585,50.0585,0,0,0-.9932-9.4345,30.7783,30.7783,0,0,1-16.8838,4.9658c-19.8623,0-30.7871-15.3936-30.7871-34.76C357.6113,458.5811,373.998,443.1875,396.3438,443.1875ZM359.1016,320.5352c0-22.8418,17.8759-40.7183,41.2148-40.7183a40.2743,40.2743,0,0,1,40.7188,40.7183c0,23.3388-17.877,41.2153-40.7188,41.2153C376.9775,361.7505,359.1016,343.874,359.1016,320.5352Z" style="fill: #fff"/>
    <path d="M550.2793,464.043c0-40.2217,27.8076-56.6084,41.2148-62.07v-1.9864c-4.4687-1.9863-41.2148-21.8491-41.2148-64.5542V288.2583c0-50.65-27.8076-69.519-66.54-77.9609a8.0241,8.0241,0,0,1-6.9522-8.938l1.9863-31.2837c.4971-5.959,4.4688-8.9385,9.9317-8.4419,51.1465,1.9863,123.1484,17.38,123.1484,126.6245v58.0986c0,21.3521,30.29,33.27,34.76,34.2627,3.4756.9932,6.9521,3.4761,6.9521,8.4419v24.3321a8.7207,8.7207,0,0,1-7.4492,8.9375c-11.917,1.9863-34.2627,11.4218-34.2627,33.7666V512.21c0,109.2451-72.0019,123.6455-123.1484,125.6318-5.959,0-9.4346-3.4766-9.9317-8.4424l-1.9863-31.2832c-.4961-5.4619,3.4766-8.4414,6.9522-9.4346,38.7324-7.9453,66.54-25.8222,66.54-76.4716Z" style="fill: #fff"/>
  </g>
</svg>
